HIERARCHY
ROOT Hips
{
    OFFSET 0.000000 0.000000 0.000000
    CHANNELS 6 Xposition Yposition Zposition Zrotation Xrotation Yrotation
    JOINT Spine
    {
        OFFSET -0.000000 8.834163 0.000000
        CHANNELS 3 Zrotation Xrotation Yrotation
        JOINT Spine1
        {
            OFFSET -0.000000 17.855492 0.000000
            CHANNELS 3 Zrotation Xrotation Yrotation
            JOINT Neck
            {
                OFFSET -0.000000 17.782162 1.616560
                CHANNELS 3 Zrotation Xrotation Yrotation
                JOINT Head
                {
                    OFFSET -0.000000 15.082717 -2.154674
                    CHANNELS 3 Zrotation Xrotation Yrotation
                    End Site
                    {
                        OFFSET -0.000000 26.933422 0.000000
                    }
                }
            }
            JOINT LeftShoulder
            {
                OFFSET 4.280775 15.989452 -0.632416
                CHANNELS 3 Zrotation Xrotation Yrotation
                JOINT LeftArm
                {
                    OFFSET 11.735877 0.000000 0.000000
                    CHANNELS 3 Zrotation Xrotation Yrotation
                    JOINT LeftForeArm
                    {
                        OFFSET 33.149986 0.000000 0.000000
                        CHANNELS 3 Zrotation Xrotation Yrotation
                        JOINT LeftHand
                        {
                            OFFSET 28.572401 0.000000 0.000000
                            CHANNELS 3 Zrotation Xrotation Yrotation
                            End Site
                            {
                                OFFSET 16.160055 0.000000 0.000000
                            }
                        }
                    }
                }
            }
            JOINT RightShoulder
            {
                OFFSET -4.290631 15.989452 -0.632416
                CHANNELS 3 Zrotation Xrotation Yrotation
                JOINT RightArm
                {
                    OFFSET -11.735877 0.000000 0.000000
                    CHANNELS 3 Zrotation Xrotation Yrotation
                    JOINT RightForeArm
                    {
                        OFFSET -33.149986 0.000000 0.000000
                        CHANNELS 3 Zrotation Xrotation Yrotation
                        JOINT RightHand
                        {
                            OFFSET -28.572401 0.000000 0.000000
                            CHANNELS 3 Zrotation Xrotation Yrotation
                            End Site
                            {
                                OFFSET -16.160055 0.000000 0.000000
                            }
                        }
                    }
                }
            }
        }
    }
    JOINT LeftUpLeg
    {
        OFFSET 10.773369 0.000000 0.000000
        CHANNELS 3 Zrotation Xrotation Yrotation
        JOINT LeftLeg
        {
            OFFSET -0.000000 -54.062664 0.000000
            CHANNELS 3 Zrotation Xrotation Yrotation
            JOINT LeftFoot
            {
                OFFSET -0.000000 -48.941059 0.000000
                CHANNELS 3 Zrotation Xrotation Yrotation
                JOINT LeftToeBase
                {
                    OFFSET -0.000000 -7.002690 16.160055
                    CHANNELS 3 Zrotation Xrotation Yrotation
                    End Site
                    {
                        OFFSET -0.000000 0.000000 4.309348
                    }
                }
            }
        }
    }
    JOINT RightUpLeg
    {
        OFFSET -10.773369 0.000000 0.000000
        CHANNELS 3 Zrotation Xrotation Yrotation
        JOINT RightLeg
        {
            OFFSET -0.000000 -54.062664 0.000000
            CHANNELS 3 Zrotation Xrotation Yrotation
            JOINT RightFoot
            {
                OFFSET -0.000000 -48.941059 0.000000
                CHANNELS 3 Zrotation Xrotation Yrotation
                JOINT RightToeBase
                {
                    OFFSET -0.000000 -7.002690 16.160055
                    CHANNELS 3 Zrotation Xrotation Yrotation
                    End Site
                    {
                        OFFSET -0.000000 0.000000 4.309348
                    }
                }
            }
        }
    }
}
MOTION
Frames:    9
Frame Time:    0.008333
26.867945    94.944160    -3.716963    14.000427    22.501116    -35.533775    -5.978087    -24.130144    -0.750872    20.638384    33.712364    -5.787589    -6.657799    40.542461    -22.275148    33.750378    -56.494762    -3.321096    -2.804801    10.494096    0.655653    -25.230757    40.768181    -71.217369    -28.831003    -46.255699    -39.100906    39.297352    -46.983253    25.901712    -9.316082    12.908216    19.958054    16.670830    40.533619    70.064087    41.249908    -50.685505    57.111156    -64.215088    -49.515755    -38.646957    32.891052    -25.344284    29.727625    -7.928816    41.778923    -19.441589    -3.691566    -39.186420    19.362083    0.000000    0.000000    0.000000    -29.253502    -59.258141    -0.635738    16.740934    38.763294    -3.996274    8.889067    -17.073776    -24.851122    0.000000    0.000000    0.000000    
26.854092    94.833153    -3.921996    14.162487    22.865025    -35.479229    -5.939368    -24.185219    -0.749092    20.584911    33.768162    -5.785432    -6.538085    40.601154    -22.206005    33.867786    -56.706154    -3.075708    -2.814005    10.510924    0.671946    -25.270363    40.703400    -71.195717    -28.811970    -46.108192    -39.026688    39.218761    -46.874374    25.737745    -9.298432    12.989626    19.882423    16.756823    40.447735    70.097580    41.232616    -50.835022    57.006142    -64.222641    -49.655441    -38.582802    33.295246    -25.776653    30.287195    -7.978889    41.894714    -19.583309    -3.715941    -39.252792    19.199484    0.000000    0.000000    0.000000    -29.661919    -59.749912    -1.265622    16.783684    38.974743    -4.474303    8.969491    -17.052029    -24.376425    0.000000    0.000000    0.000000    
26.808199    94.730080    -4.107427    14.289192    23.181726    -35.437790    -5.938475    -24.241602    -0.729214    20.646711    33.805107    -5.789310    -6.633167    40.796371    -22.094349    34.355492    -56.943859    -2.595566    -2.883579    10.601535    0.606803    -25.179329    40.629280    -71.220161    -28.587358    -45.937260    -38.797310    38.843422    -46.741001    25.453789    -9.296846    13.073772    19.851553    17.090469    40.327095    69.969963    41.296944    -50.987301    56.967003    -64.668167    -49.490898    -38.967533    33.719105    -26.157066    31.095440    -7.708251    42.179493    -20.662678    -3.466203    -39.311913    19.551817    0.000000    0.000000    0.000000    -29.935902    -60.160397    -1.809721    16.774464    39.122662    -5.012442    8.940255    -17.021809    -23.838972    0.000000    0.000000    0.000000    
26.745378    94.637642    -4.276791    14.372011    23.441732    -35.370834    -5.874599    -24.373802    -0.780851    20.560043    34.078751    -5.874651    -6.713830    40.865631    -21.949139    34.778000    -57.107555    -2.132468    -2.923974    10.513995    0.775297    -24.823259    40.697990    -71.377075    -28.630829    -46.014984    -38.974510    38.977364    -46.720070    25.922956    -9.308766    13.047152    20.051676    17.375385    40.194424    69.825081    41.463631    -51.212799    57.177139    -65.691872    -49.008202    -39.975586    34.111462    -26.458622    31.681559    -7.703258    42.320896    -20.766188    -3.531289    -39.301117    19.261148    0.000000    0.000000    0.000000    -30.168743    -60.463100    -2.328404    16.685379    39.265079    -5.168024    8.913682    -17.063076    -23.460646    0.000000    0.000000    0.000000    
26.701868    94.553635    -4.411374    14.514346    23.637178    -35.321724    -5.848046    -24.488405    -0.811714    20.428444    34.255783    -5.898335    -6.775704    40.962555    -21.810118    35.011600    -57.213600    -1.817398    -2.927953    10.537413    0.802746    -24.860870    40.615620    -71.319382    -28.589428    -46.016804    -38.875370    39.156437    -46.653122    25.947231    -9.294484    13.106716    20.195913    17.476109    40.184616    69.727646    41.722599    -51.432110    57.774273    -66.699249    -48.588936    -41.123550    34.332069    -26.749037    32.133823    -7.571778    42.470135    -21.347801    -3.400059    -39.333523    19.463150    0.000000    0.000000    0.000000    -30.579624    -60.725845    -3.028023    16.655289    39.415607    -5.249008    8.775192    -17.115074    -23.206577    0.000000    0.000000    0.000000    
26.638958    94.459244    -4.540829    14.589226    23.798656    -35.252678    -5.836482    -24.575962    -0.840603    20.348742    34.460335    -5.939897    -7.080135    41.120136    -21.624168    35.838047    -57.232010    -1.153375    -2.973375    10.477609    1.026252    -24.377680    40.712605    -71.688423    -28.425817    -46.038975    -38.720757    38.874092    -46.665302    25.897720    -9.244409    13.095638    20.301989    17.540710    40.233223    69.647827    41.632813    -51.448048    58.113701    -68.312042    -47.411926    -42.286201    34.570007    -26.982365    32.390633    -7.562418    42.599770    -21.589296    -3.344686    -39.371929    19.498625    0.000000    0.000000    0.000000    -30.908293    -60.946945    -3.762537    16.632698    39.641575    -4.961967    8.475380    -17.249157    -23.330097    0.000000    0.000000    0.000000    
26.557142    94.387100    -4.667800    14.565536    23.891691    -35.178074    -5.886351    -24.529308    -0.855957    20.425623    34.550762    -5.989264    -6.728590    41.109413    -21.599125    35.041702    -57.432308    -1.499253    -2.968063    10.486610    1.041288    -24.696791    40.621784    -71.532730    -28.271009    -46.010834    -38.344879    38.487484    -46.650459    25.671221    -9.249103    13.143398    20.382799    17.585880    40.166927    69.637680    41.876858    -51.431545    58.366219    -69.180954    -46.938259    -42.794750    34.809372    -27.126791    32.628098    -7.458260    42.748695    -21.883108    -3.383364    -39.393242    19.495466    0.000000    0.000000    0.000000    -31.022314    -61.080238    -4.268635    16.590071    39.858398    -4.542253    8.207170    -17.365990    -23.536377    0.000000    0.000000    0.000000    
26.536591    94.306221    -4.784332    14.640470    23.968405    -35.116657    -5.914808    -24.470625    -0.879293    20.408426    34.571274    -6.008042    -6.768070    41.120941    -21.493877    34.884045    -57.428585    -1.506009    -2.998060    10.503285    1.080459    -24.493673    40.701839    -71.659836    -28.243507    -46.193165    -38.413963    38.744003    -46.724617    25.934731    -9.296820    13.217034    20.372305    17.201710    40.248146    69.944771    42.167969    -51.576588    58.918850    -70.550392    -46.350880    -43.600204    34.884243    -27.379641    32.688065    -7.350506    42.923046    -22.002014    -3.331831    -39.453445    19.540384    0.000000    0.000000    0.000000    -31.432041    -61.250320    -4.977835    16.538279    40.124554    -3.991960    8.062989    -17.478003    -23.729940    0.000000    0.000000    0.000000    
26.495440    94.230270    -4.882978    14.646107    23.990654    -35.067616    -5.963831    -24.369642    -0.889075    20.458864    34.579887    -6.030494    -6.690215    41.135853    -21.435291    34.507782    -57.477421    -1.660417    -3.023818    10.559873    1.124805    -24.453369    40.719643    -71.712395    -28.150894    -46.218437    -38.278885    38.407143    -46.812519    25.726170    -9.301778    13.219870    20.376198    17.163454    40.290554    69.972946    41.952744    -51.578522    58.817795    -70.277351    -46.147697    -43.909267    34.953979    -27.510782    32.594234    -7.354584    43.024551    -21.788137    -3.373201    -39.512913    19.398775    0.000000    0.000000    0.000000    -31.672482    -61.348999    -5.441288    16.603790    40.331673    -3.669696    7.870148    -17.586857    -23.912403    0.000000    0.000000    0.000000    
